<svg class="svg replaced-svg" id="Layer_3" style="enable-background:new 0 0 1481.2 1140.6;" version="1.1" viewBox="0 0 1481.2 1140.6" x="0px" xml:space="preserve" xmlns:xlink="http://www.w3.org/1999/xlink" xmlns="http://www.w3.org/2000/svg" y="0px">
<style>
  .st0{fill:none;stroke:#000;stroke-width:2.75;stroke-miterlimit:10;}
</style>
<title>3_notes</title>
<path class="st0" d="M547.7,55.4c14.9,16,16.9,45.1-0.5,58.3c-8.1,6.2-18.6,8-28.5,10.3s-20.3,6-26.3,14.2c-5.9,8.3-4.4,22.3,5.1,25.9c1.6-12.4-9.5-22.6-20-29.5c-10.5-6.9-22.5-14.4-24.8-26.7c0.8-2.5,4.8-2.4,6.5-0.4s1.7,5,1.6,7.6c-1.1,30.3-2.2,60.6-3.3,90.9c-0.2,6.6-0.5,13.4-3.4,19.4c-4.6,9.6-15.9,15.4-26.4,13.6c-3.2-0.6-6.6-2-7.9-5c-2.4-5.2,2.7-10.7,7.7-13.4c8.3-4.5,18.1-6.5,27.5-5.5c2.3,0.2,4.8,0.7,6.5,2.3c3.6,3.4,1.9,9.6-1,13.7c-8.2,11.7-23.8,17.6-37.7,14.3c-13.9-3.3-25.1-15.7-27-29.9c-2.5-18.6,9.5-36,11.2-54.7c2.3-24.3-15.9-48.9-39.8-53.9c-8.3-1.7-17.9-0.9-23.7,5.2c-2.4,2.5-4,5.9-3.5,9.3c0.8,4.9,5.8,8.2,10.7,8.6c8.8,0.7,16.7-6.3,20-14.4c3.3-8.1,3.1-17.2,2.8-26c-0.8-23.8-1.6-47.6-2.4-71.4c-24.9-6.9-50.1-12.8-75.5-18c-1.7,23.5-1.9,47.1-0.5,70.6c0.6,10.8,1.4,22.4-4.6,31.4c-6,9-21.7,11.7-26.8,2.2c-4.9-9.1,5.9-20.9,16.1-19c10.2,1.9,16.5,13.2,15.9,23.5c-0.6,10.3-6.4,19.6-13,27.6c-5.6,6.9-12.6,13.5-21.4,14.8c-6.4,1-12.8-1.1-19.3-1.5c-6.5-0.4-14,1.6-16.5,7.6c-1.5,3.5-0.9,7.6,0.1,11.4c5.2,20.9,18.6,40.7,15.5,62c-3.9,27-32.8,47.2-59.7,51.3c-11.7,1.8-24.3-2.1-34.9-7.5s-18.4-17.6-15.4-29.1c3.1-12.3,18.2-19.2,30.2-15.3s20,16.6,20.2,29.3c0.3,15-9.9,29.7-24,34.8s-31.3,0.2-40.6-11.6c-13.5-17.1-9-42.7,2.3-61.3s28.1-33.4,40-51.6c11.9-18.2,18.4-43,6.8-61.4c-0.6-0.9-1.2-1.8-2.1-2.4c-2.8-1.8-6.5,0.1-8.9,2.3c-14.9,13.5-15,36.5-13.1,56.5c4.1,42.3,12.6,84,21.9,125.5c2.1,9.6,4.3,19.4,3.7,29.3c-0.6,9.8-4.4,20-12.2,26c-7.8,6-20.1,6.6-27.1-0.4c-7-6.9-5.2-21.1,4-24.5c7.5-2.7,16.6,2.9,18.1,10.8c1.5,7.8-4.2,16.1-11.9,18.2c-16.8,4.6-29.1-15.4-44.7-23.1c-12.9-6.4-29.8-3.4-39.8,7c-6.8,7.2-10.7,17.5-19.4,22.3c-7.2,4-16.3,3.3-23.3,7.5C-1.6,371-0.5,391.4,10,402s26.2,13.5,41,14.6c54.8,4.1,113.7-11.3,150.2-52.4c7.7-8.7,14.3-18.3,22.7-26.3s19.2-14.4,30.8-14.3s23.6,8.3,24.9,19.8c0.5,4.5-0.4,9.4,2,13.2c3.2,5,10.5,5.3,16.2,3.5c5.7-1.8,11-5.2,16.9-5.6c9.9-0.6,18.3,7.2,23.6,15.5c5.3,8.4,8.9,18,15.9,25c12.5,12.5,32.8,13.5,49.7,8.3s31.5-15.6,47.2-23.8c15.7-8.1,33.8-14.2,50.8-9.7c58.6,15.3,120.1,27.5,177.7,8.9c12.8-4.1,25.4-9.7,35.3-18.9c9.9-9.1,16.7-22.3,15.7-35.7c-0.2-3.3-1-6.6-2.7-9.5c-2.6-4.3-7.1-7-11.7-8.8c-18.1-7.3-39.2-3.7-56.2,5.6s-30.6,24-42.5,39.5c-17.1,22.2-31.5,46.7-39.9,73.4c-15.5,49.6-9.7,104.4-28.8,152.7c-8.9,22.5-19.1,43.7-34.5,62.4s-37.3,33.3-61.4,34.2c-23.2,0.9-45.7-11.1-61-28.6c-15.3-17.4-24.2-39.8-29.2-62.4c-4.2-19.1-4.8-42,9.9-54.8c6.2-5.4,14.2-8.1,22.3-9.4c32.2-5.1,64,10.9,90.7,29.6s51.9,41,82.9,51.3c22.5,7.5,46.7,8.1,70.5,7.2c13.7-0.5,27.5-1.5,40.8,1.7c13.3,3.2,26.2,11.4,31.1,24.2c6.9,17.7-3.2,38.5,3.2,56.5c6.3,17.6,25.7,26.1,38.6,39.5c21.9,22.8,22.5,62.8,1.2,86.2c-11.9,13.1-28.7,20.6-45.1,27.4c-41.4,17.2-85,33.3-116.8,64.9c-30.5,30.3-36.8,76.7-39.2,119.7c-0.9,16.9-1,34.7,6.9,49.7c7.9,15,26.2,25.8,42,19.8c9.4-3.6,16-12.2,20.4-21.2c4.4-9,7-18.8,11.3-27.9c3.7-7.7,9.2-15.3,17.3-18c12-4,24.5,4,33.4,12.9c8.8,9,16.9,19.8,28.8,23.9c13.3,4.6,28.2-0.7,39.9-8.4s21.9-17.9,34.1-25c3.9-2.3,8.2-4.2,12.7-4.5c7.5-0.6,14.8,3.4,20,8.9c5.2,5.5,8.6,12.4,11.9,19.2c4.2,8.6,8.5,17.3,12.7,25.9c2.8,5.7,6,11.8,11.8,14.2c5.3,2.3,11.7,0.8,16.6-2.3c4.9-3.1,8.8-7.6,12.7-11.9c8-8.7,16.6-16.8,25.9-24.1c5.3-4.3,11.1-8.4,17.7-9.9c6.6-1.6,14.4,0,18.6,5.3c28.3,36.3,72.4,55,112.4,77.7c4.7,2.6,9.4,5.3,14.7,6.5c5.8,1.3,11.8,0.8,17.7,0.3c110.8-9.9,221.6-19.7,332.5-29.6c3.8-0.3,7.8-0.8,10.9-3.1s4.5-7.2,2-10c-1.6-1.8-4.2-2.2-6.6-2.5c-41.8-4.8-83.1,10-125,14.5c-29,3.1-58.3,1.3-87.5-0.5c-6.9-0.4-14.1-1-19.9-4.7c-5.8-3.7-9.5-11.7-6.1-17.7c2.9-5.1,9.3-6.7,15-7.7c18.8-3.4,37.9-5.3,57-5.8c9.8-0.3,22.6,2.3,23.8,12c0.7,5.7-3.6,11.2-8.9,13.6s-11.2,2.6-17,2.8c-43.7,1.4-87.2,7.4-129.6,17.8c-13.9,3.4-28.1,7.4-42.3,5.4c-12.1-1.7-23.1-7.5-33.8-13.2c-22.5-12-45.1-24-66.3-38.3c-6.2-4.2-12.9-11.6-9-18c2.4-3.9,7.6-4.7,12.2-5.2c92.3-8.8,184.9-13.9,277.5-19c17.2-0.9,34.6-1.9,51.4,1.8c12.2,2.7,23.7,7.8,35,13.2c17.4,8.4,34.4,17.7,50.8,27.8c3.2,2,6.9,5.5,5.3,9c-1.5,3.1-6,2.9-9.3,2c-21.9-5.7-41.7-17.5-61.1-29.2c-12.1-7.3-24.5-14.9-32.6-26.4c-9.7-13.8-12-31.3-13.9-48.1c-4-34.5-8.1-69-12.1-103.5c-3-25.6-4.4-51.9-9.5-77.2c-2.5-12.3-6.5-25.8-17.3-32.2c-6.8-4-15.1-4.3-22.9-4.5c-67.2-1.8-134.5-1.8-201.7-0.2c-26.5,0.6-53.1,1.6-78.9,7.4c-5,1.1-10.5,2.9-12.7,7.5c-1.2,2.6-1.1,5.6-0.9,8.4c4.9,79.6,16.5,158.8,34.5,236.5c1.2,5.2,2.7,10.7,6.9,14c4.4,3.4,10.6,3.2,16.2,2.9c67.8-4.2,135.7-8.3,203.5-12.5c24.2-1.5,48.6-3,72.4-7.5c3.2-0.6,6.7-1.4,8.7-3.9c2-2.4,2.2-5.8,2.2-8.9c0-29.4-9.7-57.8-14.7-86.7c-6.6-38.7-4.8-79.3-18.5-116.1c-1.5-3.9-3.2-8-6.6-10.5c-3.8-2.8-8.9-3.1-13.6-3.3c-68.1-2.3-136.3-2.2-204.4,0.4c-17.7,0.7-35.5,1.5-52.5,6.4c-2.8,0.8-5.7,1.8-7.6,4.1c-2.1,2.6-2.3,6.2-2.4,9.5c-2.1,66.6,7.3,146.9,23.9,211.5l26.2-31.9l27.5,4.9l16-36.8l24.4,1.8l32.8-31.9l27.9,16l16.4-44.8l30.6,0.4l31-31L1274,1000c4.9,6.2,8,16.9,15.2,20.3c2,0.9,4.2,0.9,6.4,0.7c14.3-1.5,27.8-11.4,41.8-7.9c15.9,4,24.6,23.8,40.8,26.1c12.8,1.8,24.2-8.5,30.8-19.7s10.7-23.9,19.7-33.3c4.2-4.4,10.6-8,16.3-5.9c3.3,1.2,5.6,4.1,7.7,6.8c9.3,11.9,18.6,23.7,27.9,35.6" style="stroke-dasharray: 9855.25, 9855.25; stroke-dashoffset: 0;"></path>
</svg>